<svg width="54" height="52" viewBox="0 0 54 52" fill="none" xmlns="http://www.w3.org/2000/svg">
<path d="M53.6432 26.2981C53.6432 24.9392 52.9451 24.2301 51.7101 24.0529C47.629 23.5802 43.548 23.1075 39.5206 22.5757C38.2319 22.3985 37.856 22.8712 37.8023 24.2892C37.6949 26.3572 36.5136 27.4799 34.5267 27.4799H31.1438C32.2177 28.1298 33.2917 28.3661 34.4193 28.4843C38.1782 28.8979 41.937 29.3115 45.7496 29.8433C48.6493 30.1978 49.1326 30.9068 49.1326 34.0975V48.7507C50.8509 46.9191 53.3747 45.6192 53.5358 43.0194C53.858 37.4654 53.6432 31.9113 53.6432 26.2981ZM7.62411 29.8433C10.1479 29.607 12.6717 29.3706 15.1955 28.957C17.6656 28.5434 20.2968 28.6616 22.7132 27.7162C22.391 27.5389 22.1225 27.4799 21.854 27.5389C18.847 27.9525 16.4843 27.1844 15.5714 23.5802C15.2492 22.3985 14.39 22.5757 13.5846 22.6939C9.98681 23.1075 6.44275 23.6984 2.89869 23.9347C0.750778 24.112 0.106404 25.1755 0.106404 27.4208C0.2138 31.4386 0.482289 35.4564 0.0527061 39.4743C-0.376877 43.7875 1.87843 46.2101 4.67072 49.2825C4.67072 43.6103 4.72442 38.588 4.67072 33.6248C4.67072 31.3795 5.47619 30.0796 7.62411 29.8433ZM16.2695 21.8667V13.1811C16.2695 4.55458 15.4103 4.25915 24.1094 4.37732C27.8682 4.49549 31.6271 4.43641 35.7618 4.43641C34.6341 2.60475 34.7415 0.241317 32.164 0.300403C27.2775 0.418574 22.3373 0.418574 17.4508 0.359488C15.5714 0.300403 14.927 1.30486 14.927 3.19561V18.6761C14.927 19.7987 15.0344 20.8623 16.2695 21.8667ZM34.3119 26.5345C36.1914 26.5936 36.9968 25.5891 36.9968 23.5211V8.27698C36.9968 6.38624 36.1377 5.38178 34.4193 5.38178H19.6524C17.9878 5.38178 17.1286 6.20898 17.0749 8.04064V23.8165C17.1286 25.7073 17.9878 26.5936 19.7598 26.5345C22.1762 26.4754 24.5389 26.5345 26.9016 26.5345C29.3717 26.5345 31.8418 26.4754 34.3119 26.5345ZM20.5116 25.8255C18.7396 25.8255 17.773 24.7028 17.773 22.6939V9.39961C17.773 7.27252 18.7396 6.20898 20.6727 6.20898H33.3991C35.2248 6.20898 36.1914 7.15435 36.1914 9.16327V22.753C36.2451 24.821 35.1711 25.8255 33.4528 25.8255C29.1569 25.9436 24.8074 25.9436 20.5116 25.8255ZM22.6595 29.0161C17.773 29.607 12.8865 30.1978 7.99999 30.7296C6.28166 30.9068 5.47619 31.7931 5.52989 33.743C5.58359 38.8243 5.52989 43.9057 5.52989 48.9871C5.52989 51.1142 6.33536 52.0005 8.26848 51.7641C13.2087 51.1733 18.2026 50.7006 23.1428 50.1097C24.6463 49.9325 25.3981 49.0462 25.3981 47.3327C25.3444 44.792 25.3981 42.2513 25.3981 39.7106C25.3981 37.1108 25.3444 34.452 25.3981 31.8522C25.3981 29.7251 24.5389 28.7798 22.6595 29.0161ZM24.7 45.9737C24.7537 48.219 23.7872 49.3416 21.854 49.5779C17.6119 50.0506 13.4235 50.5824 9.18134 50.996C7.30192 51.2323 6.17426 50.1097 6.17426 47.9826C6.12057 43.4921 6.12057 39.0016 6.17426 34.5111C6.17426 32.7976 6.81864 31.6159 8.48327 31.4386C12.8328 30.9068 17.1823 30.3751 21.5319 29.9615C23.8946 29.7251 24.5926 30.6114 24.7 33.2112C24.7537 35.3383 24.7 37.4654 24.7 39.5924C24.7 41.7195 24.6463 43.8466 24.7 46.0328V45.9737ZM48.2734 41.2469C48.2734 38.7062 48.2197 36.1655 48.2734 33.6248C48.3271 31.9704 47.7901 30.9659 46.1792 30.7887L30.8753 29.0161C29.2643 28.8388 28.4589 29.666 28.4589 31.4386V47.6872C28.4589 49.2234 29.2643 49.9325 30.4994 50.1097C35.547 50.7006 40.5946 51.1733 45.6422 51.7641C47.5753 52.0005 48.3271 50.996 48.2734 48.8689C48.2197 46.3282 48.2734 43.7875 48.2734 41.2469ZM47.6827 47.6281C47.5753 50.287 46.394 51.2323 44.0313 50.9369C40.2724 50.4642 36.5136 50.0506 32.7547 49.6961C29.8013 49.4007 29.0496 48.5735 29.0496 45.3829C29.0496 41.4832 28.9959 37.5244 29.0496 33.6248C29.0496 30.6705 29.9624 29.7251 32.5936 29.9615C36.782 30.3751 41.0242 30.9068 45.2126 31.3795C46.9846 31.6159 47.629 32.8567 47.6827 34.6292C47.7364 36.8154 47.6827 39.0016 47.6827 41.2469C47.6827 43.3739 47.7364 45.501 47.6827 47.6281ZM35.3322 22.5167V9.51778C35.3859 7.86338 34.6878 7.09527 33.238 7.15435H20.9412C19.3839 7.09527 18.6322 7.74521 18.6322 9.57687C18.6859 13.831 18.6859 18.0852 18.6322 22.3394C18.6322 24.1711 19.3302 24.9392 20.8875 24.9392H33.1843C34.6341 24.9392 35.3322 24.1711 35.3322 22.5167ZM32.701 23.6984C31.5197 23.6984 30.3383 23.7575 29.1569 23.6393C28.4589 23.6393 27.4386 24.112 27.2775 22.9893C27.1701 22.044 26.5795 20.8032 27.8145 20.1532C28.2978 19.9169 28.2978 19.6805 28.1904 19.2079C28.0293 18.6761 27.9219 18.0852 27.2238 18.2034C26.2036 18.3216 25.0759 17.6716 24.2704 18.6761C23.8946 19.2079 24.1094 19.6805 24.5389 20.3305C25.774 22.2212 24.9685 23.6393 22.8206 23.6984C22.2299 23.6984 21.6392 23.6984 21.0486 23.6393C20.4042 23.6393 19.4913 23.9938 19.3302 23.0484C19.1154 22.044 18.7933 20.8623 19.6524 20.0351C21.6392 18.0261 21.6392 15.0718 22.6058 12.5902C22.928 11.6449 21.6392 10.8177 21.7466 9.51778C21.854 8.15881 22.1762 7.62704 23.4113 7.74521C24.5926 7.8043 25.8277 7.74521 27.009 7.74521H29.9087C32.0566 7.74521 32.9695 9.34053 31.7344 11.2904C31.1438 12.2948 31.2512 12.8857 31.6271 13.6538C32.5936 15.84 32.5936 18.4988 34.473 20.3305C35.7081 21.5713 34.473 23.6393 32.701 23.6984ZM21.6392 30.8478C17.3971 31.3795 13.2087 31.8522 8.96655 32.3249C7.46301 32.4431 6.97973 33.3884 7.03343 34.9838V47.7463C7.03343 49.5779 7.8389 50.2279 9.44983 50.0506C13.5309 49.5779 17.5582 49.1053 21.6392 48.6917C23.0891 48.5144 23.8409 47.8054 23.8409 46.151C23.8946 41.8377 23.8946 37.4654 23.8409 33.1521C23.8409 31.5568 23.1965 30.6705 21.6392 30.8478ZM23.6261 42.8422C23.2502 45.0283 21.854 46.5055 19.9209 47.0373C16.3232 48.1008 12.5643 48.3962 8.91286 48.8098C8.48327 48.8689 7.8926 49.0462 7.8389 48.3371C7.6778 47.3327 7.40931 46.2691 8.10739 45.2647C9.12765 43.7285 9.18134 38.3516 8.21478 36.9336C7.03343 35.2201 7.62411 33.3294 9.50353 33.093C12.5643 32.6203 15.6788 32.2658 18.7933 31.9704C20.5116 31.7931 22.1225 32.1476 22.8206 34.2156C23.5187 36.2246 22.4447 37.4654 20.9949 38.7652C22.5521 39.8288 23.9483 40.8923 23.6261 42.8422ZM44.5682 32.2658C40.5409 31.8522 36.4599 31.3795 32.3788 30.9068C30.6068 30.6705 29.9087 31.4977 29.9087 33.3884C29.9087 37.5835 29.9624 41.7786 29.9087 45.9146C29.9087 47.6281 30.6068 48.5144 32.164 48.6917C36.1914 49.1053 40.2724 49.5779 44.3534 50.0506C45.9644 50.2279 46.7699 49.5189 46.8235 47.7463V41.365C46.8235 39.297 46.7699 37.229 46.8235 35.161C46.8772 33.3884 46.3403 32.4431 44.5682 32.2658ZM45.2126 45.7965C45.0515 46.3282 44.6219 46.7418 44.2461 47.1554C42.0444 49.2825 36.9968 49.2234 33.9361 47.0963C31.1975 45.1465 29.8013 41.3059 30.6605 37.879C31.7881 33.6839 35.4396 31.675 39.5743 33.093C40.702 33.5066 41.6149 33.802 42.8499 33.5066C45.1589 32.9748 45.4811 33.5066 45.5348 36.6382C45.32 37.3472 46.0181 38.8243 45.0515 39.0607C43.8702 39.3561 42.3666 39.5334 41.4001 38.0562C40.6483 36.9336 39.7354 36.1064 38.393 36.6972C37.1042 37.229 36.9431 38.5289 36.9968 39.7697C36.9968 40.8333 37.0505 41.8968 37.2653 42.9603C37.4801 44.1421 38.2856 44.9102 39.4669 45.0283C40.5409 45.1465 41.3464 44.5557 41.7223 43.433C42.7425 40.7151 44.085 43.0194 45.1052 43.3149C46.8235 43.7875 45.5348 44.9693 45.2126 45.7965ZM24.9685 16.0172C25.8277 16.1354 26.9016 16.6081 27.0627 15.7809C27.2775 14.7173 26.9016 13.4765 26.0425 12.4721C25.6666 13.6538 25.3444 14.7173 24.9685 16.0172ZM16.0547 41.365C14.9807 41.365 14.0679 41.6014 14.2289 42.6649C14.3363 43.8466 14.1752 44.792 15.2492 44.5557C16.3232 44.2602 17.6656 44.3193 17.6656 42.6058C17.6656 41.5423 16.9138 41.3059 16.0547 41.365ZM15.3029 38.588C16.2158 38.3516 17.3434 38.4107 17.3434 36.7563C17.2897 35.6337 16.4843 35.811 15.7325 35.811C14.8733 35.811 14.1215 35.9291 14.2826 37.229C14.3363 37.9971 14.2289 38.8243 15.3029 38.588Z" fill="#3B4F75"/>
</svg>
