<svg width="53" height="58" viewBox="0 0 53 58" fill="none" xmlns="http://www.w3.org/2000/svg">
<path d="M42.9614 53.9846H39.7109V48.6196C39.7083 46.249 38.8514 43.9763 37.3279 42.3C35.8045 40.6237 33.739 39.6808 31.5846 39.678H21.8331C19.6786 39.6808 17.6132 40.6237 16.0897 42.3C14.5663 43.9763 13.7093 46.249 13.7068 48.6196V53.9846H10.4563V48.6196C10.4598 45.3007 11.6596 42.1189 13.7924 39.7721C15.9252 37.4253 18.8169 36.1052 21.8331 36.1013H31.5846C34.6008 36.1052 37.4925 37.4253 39.6253 39.7721C41.7581 42.1189 42.9579 45.3007 42.9614 48.6196V53.9846Z" fill="#3B4F75"/>
<path d="M7.2063 3.9115V7.48816H15.3326V20.0065C15.3326 23.3265 16.5312 26.5106 18.6648 28.8582C20.7983 31.2059 23.692 32.5247 26.7093 32.5247C29.7267 32.5247 32.6204 31.2059 34.7539 28.8582C36.8875 26.5106 38.0861 23.3265 38.0861 20.0065V7.48816H46.2124V3.9115H7.2063ZM18.5831 7.48816H34.8356V12.8531H18.5831V7.48816ZM26.7093 28.9481C24.5541 28.9481 22.4872 28.006 20.9632 26.3291C19.4392 24.6523 18.5831 22.3779 18.5831 20.0065V16.4298H34.8356V20.0065C34.8356 22.3779 33.9795 24.6523 32.4555 26.3291C30.9315 28.006 28.8646 28.9481 26.7093 28.9481Z" fill="#3B4F75"/>
</svg>
