<svg width="42" height="53" viewBox="0 0 42 53" fill="none" xmlns="http://www.w3.org/2000/svg">
<path d="M6.81461 0.789673C6.40536 0.789673 6.05458 0.854002 5.7038 0.982662C3.42373 1.4973 1.61136 3.49151 1.14365 6.00037C0.968262 6.38634 0.968262 6.77232 0.968262 7.22263V42.6039C0.968262 47.9432 4.88531 52.2533 9.73778 52.2533H41.8927V45.8204H9.73778C8.10081 45.8204 6.81461 44.4051 6.81461 42.6039C6.81461 40.8027 8.10081 39.3874 9.73778 39.3874H41.8927V4.00615C41.8927 2.20492 40.6065 0.789673 38.9695 0.789673H36.0463V20.0885L30.2 13.6556L24.3537 20.0885V0.789673H6.81461Z" fill="#3B4F75"/>
</svg>
