<?xml version="1.0" encoding="UTF-8"?>
<svg id="Layer_2" data-name="Layer 2" xmlns="http://www.w3.org/2000/svg" viewBox="0 0 497.41 612.38">
  <defs>
    <style>
      .cls-1 {
        fill: #3b5076;
      }

      .cls-1, .cls-2, .cls-3, .cls-4, .cls-5 {
        stroke-width: 0px;
      }

      .cls-2 {
        fill: #231f20;
      }

      .cls-3 {
        fill: #f1f2f2;
      }

      .cls-4 {
        fill: #2d464d;
      }

      .cls-5 {
        fill: #acc6e7;
      }
    </style>
  </defs>
  <g id="geni_head">
    <path class="cls-3" d="m401.29,38c-1.79-21.6-16.34-38-33.67-38h-238.34c-17.32,0-31.88,16.39-33.67,38-2.65,32.03-4.97,79.87-.97,125.88,1.87,21.49,16.41,37.72,33.65,37.72h240.3c17.24,0,31.78-16.23,33.65-37.72,4-46.01,1.68-93.85-.97-125.88Z"/>
    <path class="cls-2" d="m386.64,45.83c-1.62-18.34-14.83-32.25-30.55-32.25h-216.27c-15.72,0-28.93,13.91-30.55,32.25-2.4,27.18-4.51,67.79-.88,106.84,1.7,18.24,14.89,32.01,30.54,32.01h218.06c15.64,0,28.84-13.78,30.54-32.01,3.63-39.05,1.53-79.66-.88-106.84Z"/>
    <path class="cls-5" d="m151.2,98.91c2.59,0,4.81-1.86,5.26-4.41,2.09-12.08,12.62-21.26,25.3-21.26s23.21,9.19,25.3,21.26c.44,2.55,2.67,4.41,5.26,4.41h0c3.31,0,5.78-3,5.22-6.26-2.97-17.07-17.85-30.05-35.77-30.05s-32.8,12.98-35.77,30.05c-.57,3.26,1.91,6.26,5.22,6.26h0Z"/>
    <path class="cls-5" d="m288.58,98.91c2.59,0,4.81-1.86,5.26-4.41,2.09-12.08,12.62-21.26,25.3-21.26s23.21,9.19,25.3,21.26c.44,2.55,2.67,4.41,5.26,4.41h0c3.31,0,5.78-3,5.22-6.26-2.97-17.07-17.85-30.05-35.77-30.05s-32.8,12.98-35.77,30.05c-.57,3.26,1.91,6.26,5.22,6.26h0Z"/>
    <path class="cls-5" d="m273.06,119.04c-1.93,0-3.59,1.38-3.92,3.29-1.56,9.01-9.41,15.86-18.86,15.86s-17.31-6.85-18.86-15.86c-.33-1.9-1.99-3.29-3.92-3.29h0c-2.47,0-4.31,2.24-3.89,4.67,2.21,12.73,13.31,22.41,26.68,22.41s24.46-9.68,26.68-22.41c.42-2.43-1.42-4.67-3.89-4.67h0Z"/>
  </g>
  <g id="geni_right_arm">
    <path class="cls-1" d="m43.2,538.21c2.01,0,1.57-.12,3.51.15l.62-.94c55.17-90.44,90.83-194.08,102.08-240.85l35.58,3.41c-11.76,52.2-49.16,160.92-107.01,255.81,5.29,7.17,8.42,16.03,8.42,25.62,0,12.15-5.02,23.12-13.1,30.97l-13.15-13.53c4.55-4.42,7.38-10.6,7.38-17.44,0-13.44-10.89-24.33-24.33-24.33s-24.33,10.89-24.33,24.33c0,6.72,2.72,12.8,7.13,17.2l-13.34,13.34C4.84,604.14,0,593.34,0,581.41c0-23.86,19.34-43.2,43.2-43.2Z"/>
    <path class="cls-3" d="m129.69,283.98c1.03-18.81,16.61-33.75,35.68-33.75,19.74,0,35.74,16,35.74,35.74,0,19.74-16,35.74-35.74,35.74h-35.74v-37.72s.06-.01.06-.01Z"/>
  </g>
  <g id="geni_left_arm">
    <path class="cls-1" d="m454.21,538.21c-2.01,0-1.57-.12-3.51.15l-.62-.94c-55.17-90.44-90.83-194.08-102.08-240.85l-35.58,3.41c11.76,52.2,49.16,160.92,107.01,255.81-5.29,7.17-8.42,16.03-8.42,25.62,0,12.15,5.02,23.12,13.1,30.97l13.15-13.53c-4.55-4.42-7.38-10.6-7.38-17.44,0-13.44,10.89-24.33,24.33-24.33s24.33,10.89,24.33,24.33c0,6.72-2.72,12.8-7.13,17.2l13.34,13.34c7.82-7.82,12.65-18.62,12.65-30.55,0-23.86-19.34-43.2-43.2-43.2Z"/>
    <path class="cls-3" d="m371.24,283.98c-1.03-18.81-16.61-33.75-35.68-33.75s-35.74,16-35.74,35.74,16,35.74,35.74,35.74h35.74v-37.72h-.06Z"/>
  </g>
  <g id="geni_torso">
    <path class="cls-5" d="m336.84,305.34c0-48.81-39.57-88.39-88.39-88.39s-88.39,39.57-88.39,88.39c0,4.7.37,9.32,1.08,13.82,10.3,121.5,40.06,203.57,61.98,249.46,10.19,21.33,40.47,21.33,50.66,0,21.92-45.9,51.68-127.96,61.98-249.46.71-4.5,1.08-9.12,1.08-13.82Z"/>
    <path class="cls-1" d="m295.79,423.37c0-26.14-21.19-47.34-47.34-47.34h0c-26.14,0-47.34,21.19-47.34,47.34v91.27c7.55,21.5,15.16,39.37,22.01,53.71,10.19,21.33,40.47,21.33,50.66,0,6.85-14.34,14.46-32.21,22.01-53.71v-91.27Z"/>
    <path class="cls-3" d="m303.16,235.92c-15.97,13.5-23.76,39.13-23.76,39.13-7.28,16.88-30.95,15.56-30.95,15.56,0,0-23.67,1.32-30.95-15.56,0,0-7.79-25.63-23.76-39.13-18.77,14.81-31.39,37.08-33.4,62.33,9.99,15.58,40.76,68.1,40.76,124.11,0-26.14,21.19-46.34,47.34-46.34h0,0c26.14,0,47.34,20.19,47.34,46.34,0-56.01,30.77-108.53,40.76-124.11-2.01-25.25-14.62-47.52-33.4-62.33Z"/>
    <ellipse class="cls-4" cx="248.45" cy="375.03" rx="12.66" ry="18.21"/>
  </g>
</svg>