<svg width="527" height="701" viewBox="0 0 527 701" fill="none" xmlns="http://www.w3.org/2000/svg">
<g clip-path="url(#clip0_33_57)">
<path d="M481.009 623.833H481.975C506.191 624.351 525.658 644.091 525.658 668.367C525.658 680.489 520.809 691.478 512.932 699.513L499.694 686.308C504.187 681.661 506.942 675.342 506.942 668.377C506.942 654.086 495.333 642.508 481.009 642.508C466.684 642.508 455.075 654.086 455.075 668.377C455.075 675.47 457.945 681.896 462.585 686.568L449.535 699.961C441.391 691.891 436.349 680.725 436.349 668.377C436.349 658.488 439.585 649.354 445.053 641.961L445.254 641.69L445.078 641.402C384.726 542.66 345.679 429.545 334.305 308.41L370.503 304.949C381.359 420.578 418.637 528.541 476.265 622.77L476.269 622.777L476.274 622.785L476.922 623.765L477.096 624.028L477.408 623.984C478.423 623.843 478.786 623.809 479.152 623.805C479.341 623.803 479.531 623.81 479.821 623.817C480.108 623.825 480.478 623.833 481.009 623.833Z" fill="#496E7D" stroke="black"/>
<path d="M151.348 304.96L187.536 308.419C176.277 428.315 137.899 540.336 78.6009 638.36L78.4107 638.674L78.6539 638.949C85.5911 646.807 89.8081 657.097 89.8081 668.387C89.8081 680.509 84.96 691.499 77.0824 699.534L63.8443 686.329C68.337 681.682 71.0927 675.363 71.0927 668.398C71.0927 654.107 59.4837 642.529 45.1593 642.529C30.8348 642.529 19.2258 654.107 19.2258 668.398C19.2258 675.491 22.0959 681.917 26.7358 686.589L13.6859 699.982C5.54129 691.912 0.5 680.746 0.5 668.398C0.5 643.787 19.8431 623.853 44.5007 623.853C44.6415 623.853 44.7794 623.817 44.902 623.74C45.0201 623.665 45.0986 623.568 45.1506 623.483C45.2373 623.341 45.2828 623.173 45.3072 623.083L45.3122 623.065C45.3163 623.05 45.32 623.036 45.3235 623.023L45.4353 623.026L45.5858 622.78C103.224 528.551 140.503 420.588 151.348 304.96Z" fill="#496E7D" stroke="black"/>
<path d="M385.664 296.118V296.615H385.727V334.945H348.866C328.505 334.945 312.005 318.485 312.005 298.179C312.005 277.88 329.2 261.413 348.866 261.413C368.53 261.413 384.595 276.776 385.664 296.118Z" fill="#F1F2F2" stroke="black"/>
<path d="M134.096 334.945V296.538L134.136 296.532L134.158 296.132C135.22 276.783 151.288 261.413 170.957 261.413C191.317 261.413 207.818 277.874 207.818 298.179C207.818 318.485 191.317 334.945 170.957 334.945H134.096Z" fill="#F1F2F2" stroke="black"/>
<path d="M382.38 0.5C400.006 0.5 414.977 17.0347 417.031 39.1224H417.023L417.068 39.6637C419.837 73.0487 422.26 122.899 418.082 170.833C416.142 193.076 401.083 209.707 383.404 209.707H132.206C114.527 209.707 99.4682 193.076 97.5278 170.833C93.3499 122.899 95.7728 73.0487 98.5419 39.6637C100.4 17.2951 115.481 0.5 133.241 0.5H382.38Z" fill="#F1F2F2" stroke="black"/>
<path d="M167.033 332.744L167.032 332.726L167.029 332.708C166.291 328.042 165.906 323.25 165.906 318.376C165.906 267.749 207.046 226.712 257.805 226.712C308.564 226.712 349.704 267.759 349.704 318.376C349.704 323.25 349.319 328.042 348.581 332.708L348.578 332.726L348.576 332.744C337.815 459.367 306.722 544.872 283.833 592.68C273.362 614.542 242.248 614.542 231.777 592.68C208.888 544.883 177.795 459.367 167.033 332.744Z" fill="#AEE1F2" stroke="black"/>
<path d="M257.805 392.584C284.866 392.584 306.792 414.466 306.792 441.445V536.526C298.915 558.891 290.977 577.48 283.833 592.399C273.362 614.261 242.248 614.261 231.777 592.399C224.633 577.48 216.695 558.891 208.818 536.526V441.445C208.818 414.456 230.754 392.584 257.805 392.584Z" fill="#496E7D" stroke="black"/>
<path d="M290.29 287.81C290.768 287.955 290.768 287.955 290.768 287.955L290.769 287.954L290.77 287.951L290.774 287.937L290.791 287.88C290.807 287.829 290.831 287.753 290.862 287.653C290.926 287.454 291.021 287.158 291.149 286.776C291.403 286.012 291.787 284.903 292.3 283.527C293.325 280.775 294.867 276.956 296.93 272.693C301.01 264.267 307.108 254.151 315.259 247.091C334.664 262.635 347.692 285.877 349.823 312.215C339.751 328.047 310.158 378.938 307.236 434.765C303.076 411.232 282.493 394.078 257.756 394.078C233.01 394.078 212.435 411.24 208.276 434.765C205.353 378.939 175.76 328.048 165.689 312.215C167.82 285.872 180.863 262.626 200.263 247.082C208.419 254.143 214.521 264.264 218.602 272.693C220.666 276.956 222.208 280.775 223.233 283.527C223.746 284.903 224.129 286.012 224.384 286.776C224.511 287.158 224.607 287.454 224.67 287.653C224.702 287.753 224.725 287.829 224.741 287.88L224.759 287.937L224.763 287.951L224.764 287.954L224.764 287.955C224.764 287.955 224.764 287.955 224.816 287.939L224.764 287.955L224.772 287.981L224.783 288.007C228.696 297.136 237.003 301.314 244.246 303.214C247.874 304.166 251.256 304.553 253.73 304.702C254.968 304.777 255.98 304.792 256.685 304.789C257.037 304.787 257.313 304.781 257.501 304.775C257.595 304.772 257.667 304.769 257.717 304.767L257.766 304.764L257.816 304.767C257.865 304.769 257.937 304.772 258.032 304.775C258.22 304.781 258.495 304.787 258.848 304.789C259.552 304.792 260.565 304.777 261.802 304.702C264.277 304.553 267.659 304.166 271.286 303.214C278.529 301.314 286.837 297.136 290.749 288.007L290.76 287.981L290.768 287.955L290.29 287.81Z" fill="#F1F2F2" stroke="black"/>
<path d="M401.775 47.8308L401.815 48.2867H401.825C404.327 76.6105 406.476 118.685 402.705 159.141C400.946 177.956 387.31 192.065 371.278 192.065H143.328C127.286 192.065 113.66 177.967 111.901 159.142C108.111 118.468 110.314 76.158 112.821 47.8308C114.498 28.9008 128.145 14.6598 144.259 14.6598H370.337C386.451 14.6598 400.098 28.9008 401.775 47.8308Z" fill="#231F20" stroke="black"/>
<path d="M270.55 391.041C270.55 396.195 269.093 400.839 266.763 404.182C264.432 407.526 261.261 409.529 257.815 409.529C254.37 409.529 251.198 407.526 248.868 404.182C246.538 400.839 245.081 396.195 245.081 391.041C245.081 385.888 246.538 381.243 248.868 377.901C251.198 374.557 254.37 372.554 257.815 372.554C261.261 372.554 264.432 374.557 266.763 377.901C269.093 381.243 270.55 385.888 270.55 391.041Z" fill="#2D464D" stroke="black"/>
<path d="M156.144 103.133C158.852 103.133 161.173 101.193 161.643 98.5345C163.828 85.9388 174.835 76.3669 188.09 76.3669C201.345 76.3669 212.353 85.9492 214.538 98.5345C214.998 101.193 217.329 103.133 220.036 103.133C223.497 103.133 226.079 100.005 225.493 96.6056C222.388 78.8068 206.834 65.2726 188.101 65.2726C169.368 65.2726 153.813 78.8068 150.709 96.6056C150.113 100.005 152.705 103.133 156.165 103.133H156.144Z" fill="#AEE1F2"/>
<path d="M299.755 103.133C302.462 103.133 304.783 101.193 305.254 98.5345C307.438 85.9388 318.446 76.3669 331.701 76.3669C344.956 76.3669 355.964 85.9492 358.148 98.5345C358.608 101.193 360.939 103.133 363.647 103.133C367.107 103.133 369.689 100.005 369.104 96.6056C365.999 78.8068 350.444 65.2726 331.711 65.2726C312.979 65.2726 297.424 78.8068 294.319 96.6056C293.723 100.005 296.316 103.133 299.776 103.133H299.755Z" fill="#AEE1F2"/>
<path d="M283.531 124.122C281.514 124.122 279.778 125.561 279.433 127.553C277.803 136.947 269.597 144.09 259.718 144.09C249.839 144.09 241.623 136.947 240.003 127.553C239.658 125.572 237.922 124.122 235.905 124.122C233.323 124.122 231.399 126.458 231.838 128.992C234.149 142.265 245.752 152.358 259.728 152.358C273.705 152.358 285.298 142.265 287.618 128.992C288.057 126.458 286.134 124.122 283.552 124.122H283.531Z" fill="#AEE1F2"/>
</g>
<defs>
<clipPath id="clip0_33_57">
<rect width="526.168" height="700.669" fill="white"/>
</clipPath>
</defs>
</svg>
