<?xml version="1.0" encoding="utf-8"?>
<svg viewBox="0 0 500 500" xmlns="http://www.w3.org/2000/svg">
  <rect x="0.112" y="0.323" width="500" height="500" style="stroke: rgb(0, 0, 0);"/>
  <g transform="matrix(0.1, 0, 0, -0.1, 4.999999, 500.002899)" fill="#000000" stroke="none">
    <path d="M4550 3779 c-49 -31 -231 -111 -315 -139 -38 -12 -86 -31 -105 -41 -54 -28 -227 -99 -242 -99 -8 0 -22 -6 -33 -14 -11 -7 -63 -26 -115 -40 -52 -15 -111 -36 -130 -46 -39 -20 -290 -123 -330 -135 -24 -7 -71 -28 -225 -100 -38 -18 -113 -49 -165 -70 -52 -21 -100 -41 -106 -46 -6 -5 -28 -15 -50 -23 -21 -7 -101 -44 -178 -80 -151 -74 -394 -186 -401 -186 -7 0 -176 -75 -251 -111 -34 -16 -67 -29 -74 -29 -7 0 -27 -9 -46 -20 -44 -28 -159 -66 -223 -75 -51 -7 -91 -32 -91 -56 0 -6 14 -24 31 -40 39 -36 88 -38 150 -6 24 13 72 31 107 41 34 9 93 35 132 57 38 21 73 39 76 39 4 0 15 6 23 13 9 8 32 20 51 27 19 7 62 25 95 40 33 15 94 42 135 60 132 58 165 74 178 87 7 7 18 13 23 13 6 0 96 41 202 91 106 50 215 99 242 109 57 21 179 72 286 123 90 42 231 97 248 97 6 0 22 6 34 14 12 8 45 22 72 31 28 9 66 24 85 35 19 10 58 25 85 33 28 8 70 24 95 35 25 11 61 23 80 27 34 7 121 42 228 92 29 13 92 34 140 46 48 12 89 24 92 27 11 11 98 49 150 65 66 21 140 61 140 77 0 7 10 22 22 35 20 21 20 25 6 39 -26 27 -88 28 -128 3z" style="fill: rgb(255, 255, 255);"/>
    <path d="M1080 3335 c-25 -14 -50 -25 -56 -25 -11 0 -97 -89 -150 -156 -37 -47 -99 -172 -90 -181 10 -10 55 18 62 39 3 10 30 39 61 66 30 26 71 73 90 105 24 38 39 54 47 48 7 -6 18 -4 30 5 11 8 35 14 53 14 29 0 33 -3 33 -27 0 -42 -67 -207 -110 -272 -105 -158 -228 -224 -365 -197 -43 9 -75 31 -75 52 0 7 -7 19 -15 28 -25 24 -35 64 -35 136 0 38 -3 75 -6 84 -8 22 -53 20 -61 -1 -4 -10 -15 -24 -25 -31 -15 -11 -18 -27 -18 -90 0 -103 10 -133 65 -194 105 -117 202 -134 365 -66 101 43 228 174 292 303 30 59 68 168 68 193 0 10 5 23 10 28 6 6 13 34 17 63 5 45 3 55 -17 76 -32 34 -107 34 -170 0z" style="fill: rgb(255, 255, 255);"/>
    <path d="M500 3100 c0 -5 9 -10 21 -10 11 0 17 5 14 10 -3 6 -13 10 -21 10 -8 0 -14 -4 -14 -10z" style="fill: rgb(255, 255, 255);"/>
    <path d="M2917 2889 c-27 -16 -39 -56 -28 -93 6 -17 18 -58 27 -91 9 -33 21 -66 27 -72 8 -12 3 -17 -14 -15 -10 2 -33 -88 -25 -96 10 -10 36 27 36 52 0 10 3 16 7 12 4 -4 17 -89 29 -189 13 -100 27 -211 33 -247 6 -36 18 -126 27 -200 9 -74 20 -145 25 -157 7 -20 31 -188 43 -303 3 -25 12 -71 20 -103 9 -32 16 -67 16 -77 0 -23 56 -90 75 -90 8 0 27 14 44 31 34 34 40 72 17 105 -19 27 -43 123 -61 241 -8 54 -23 141 -34 193 -27 129 -82 490 -86 570 -5 96 -24 229 -40 280 -7 25 -16 68 -20 95 -16 120 -24 143 -57 154 -37 13 -38 13 -61 0z" style="fill: rgb(255, 255, 255);"/>
    <path d="M2518 2559 c-25 -14 -23 -64 7 -184 20 -77 27 -141 34 -276 4 -97 11 -181 15 -187 3 -6 2 -31 -4 -55 -5 -25 -10 -130 -10 -235 -1 -153 2 -196 14 -220 28 -55 67 -50 106 13 18 30 22 53 25 143 2 59 6 132 10 163 8 64 1 99 -21 99 -9 0 -14 10 -14 28 0 15 -5 129 -10 254 -9 212 -21 310 -41 333 -5 5 -9 20 -9 33 0 30 -17 62 -44 84 -24 20 -34 21 -58 7z" style="fill: rgb(255, 255, 255);"/>
    <path d="M734 2315 c-14 -9 -32 -47 -50 -102 -15 -48 -33 -97 -40 -108 -6 -11 -15 -42 -18 -70 -4 -27 -15 -84 -26 -125 -28 -106 -56 -263 -76 -420 -9 -74 -23 -147 -30 -162 -19 -36 -18 -108 2 -136 18 -26 50 -28 81 -7 26 18 67 145 82 255 10 75 77 396 86 409 2 4 13 48 24 98 28 131 41 173 50 173 5 0 19 -33 31 -72 12 -40 31 -98 41 -128 26 -78 46 -165 55 -235 4 -33 12 -76 19 -96 7 -20 16 -67 20 -105 4 -38 11 -79 16 -91 7 -18 3 -26 -21 -43 -24 -17 -49 -22 -128 -26 -126 -5 -152 -10 -181 -35 -23 -19 -23 -21 -7 -37 21 -21 42 -23 241 -25 101 -1 170 -6 188 -14 29 -13 65 -5 83 18 19 24 23 58 8 69 -16 14 -64 109 -64 128 0 7 -11 46 -24 86 -14 40 -30 113 -37 162 -17 133 -54 303 -77 354 -11 25 -23 61 -27 80 -4 18 -23 55 -41 82 -19 26 -34 51 -34 56 0 4 -17 25 -38 45 -41 40 -74 47 -108 22z" style="fill: rgb(255, 255, 255);"/>
  </g>
</svg>