<?xml version="1.0" encoding="UTF-8" standalone="no"?>
<svg width="122" height="66" viewBox="0 0 122 66" fill="none" xmlns="http://www.w3.org/2000/svg">
<mask id="mask0_655_1372" style="mask-type:alpha" maskUnits="userSpaceOnUse" x="0" y="0" width="122" height="66">
<path d="M0 1.94145V1.94145C0 1.97381 0.0262333 2.00004 0.0585937 2.00004H58.3891L121.941 1.9415C121.974 1.94147 122 1.91521 122 1.88281V1.88281V25C122 47.6437 103.644 66 81 66H41C18.3563 66 0 47.6437 0 25V1.94145Z" fill="#3B4F75"/>
</mask>
<g mask="url(#mask0_655_1372)">
<path d="M104.089 119.825C103.646 119.825 103.743 119.799 103.316 119.858L103.179 119.652C91.0266 99.7809 84.6315 88.3768 82.3583 63.9888L74.521 64.738C76.9065 90.3191 83.685 102.839 96.4277 123.688C95.2625 125.263 94.573 127.21 94.573 129.317C94.573 131.986 95.6788 134.397 97.4586 136.121L100.355 133.149C99.353 132.177 98.7296 130.82 98.7296 129.317C98.7296 126.364 101.128 123.971 104.089 123.971C107.049 123.971 109.448 126.364 109.448 129.317C109.448 130.793 108.849 132.129 107.878 133.096L110.816 136.027C112.538 134.309 113.602 131.936 113.602 129.315C113.602 124.072 109.342 119.823 104.087 119.823L104.089 119.825Z" fill="#3B4F75"/>
<path d="M14.5135 119.825C14.9562 119.825 14.8593 119.799 15.2866 119.858L15.4232 119.652C27.5756 99.7809 33.9708 88.3768 36.244 63.9888L44.0813 64.738C41.6957 90.3191 34.9173 102.839 22.1746 123.688C23.3398 125.263 24.0293 127.21 24.0293 129.317C24.0293 131.986 22.9235 134.397 21.1437 136.121L18.2471 133.149C19.2493 132.177 19.8727 130.82 19.8727 129.317C19.8727 126.364 17.4739 123.971 14.5135 123.971C11.553 123.971 9.15425 126.364 9.15425 129.317C9.15425 130.793 9.75339 132.129 10.7248 133.096L7.78635 136.027C6.06382 134.309 4.99991 131.936 4.99991 129.315C4.99991 124.072 9.25998 119.823 14.5157 119.823L14.5135 119.825Z" fill="#3B4F75"/>
<path d="M85.9494 67.3938C85.7225 63.261 82.2907 59.9785 78.0901 59.9785C73.8895 59.9785 70.2175 63.4939 70.2175 67.831C70.2175 72.1682 73.7419 75.6836 78.0901 75.6836H85.9626V67.396H85.9494V67.3938Z" fill="#F1F2F2"/>
<path d="M32.7425 67.3938C32.9693 63.261 36.4012 59.9785 40.6018 59.9785C44.95 59.9785 48.4743 63.4939 48.4743 67.831C48.4743 72.1682 44.95 75.6836 40.6018 75.6836H32.7292V67.396L32.7425 67.3938Z" fill="#F1F2F2"/>
<path d="M92.5687 13.3491C92.1744 8.60328 88.9694 5 85.1521 5H32.6545C28.8393 5 25.6322 8.60108 25.2379 13.3491C24.6542 20.3865 24.1431 30.8975 25.0242 41.0065C25.4361 45.7281 28.6389 49.294 32.4364 49.294H85.3679C89.1654 49.294 92.3682 45.7281 92.7801 41.0065C93.6612 30.8975 93.1502 20.3865 92.5665 13.3491H92.5687Z" fill="#F1F2F2"/>
<path d="M78.3719 72.0869C78.3719 61.3627 69.6557 52.6665 58.902 52.6665C48.1483 52.6665 39.4321 61.3605 39.4321 72.0869C39.4321 73.1195 39.5136 74.1346 39.67 75.1233C41.9388 101.818 48.4941 119.85 53.3225 129.933C55.5671 134.619 62.237 134.619 64.4815 129.933C69.3099 119.848 75.8652 101.818 78.134 75.1233C78.2904 74.1346 78.3719 73.1195 78.3719 72.0869Z" fill="#ABC7EE"/>
<path d="M71.0082 56.9275C67.472 59.9355 65.7471 65.6463 65.7471 65.6463C64.1351 69.4074 58.8939 69.1133 58.8939 69.1133C58.8939 69.1133 53.6527 69.4074 52.0407 65.6463C52.0407 65.6463 50.3157 59.9355 46.7795 56.9275C42.6233 60.2274 39.8289 65.1895 39.3838 70.8157C41.5959 74.2871 48.4092 88.1852 48.4092 100.665C48.4092 94.8408 53.1013 88.1441 58.8917 88.1441C64.6798 88.1441 69.3741 94.8385 69.3741 100.665C69.3741 88.1852 76.1875 74.2871 78.3995 70.8157C77.9545 65.1895 75.1622 60.2274 71.0038 56.9275H71.0082Z" fill="#F1F2F2"/>
<path d="M89.344 15.0694C88.9871 11.0398 86.0773 7.98364 82.6147 7.98364H34.9763C31.5136 7.98364 28.6038 11.0398 28.2469 15.0694C27.7183 21.0411 27.2535 29.9637 28.0531 38.5434C28.4276 42.551 31.333 45.5764 34.7802 45.5764H82.8129C86.258 45.5764 89.1656 42.5488 89.54 38.5434C90.3396 29.9637 89.877 21.0411 89.3462 15.0694H89.344Z" fill="#231F20"/>
<path d="M37.4806 26.7317C38.0511 26.7317 38.5401 26.323 38.6392 25.7627C39.0996 23.1086 41.4191 21.0916 44.2121 21.0916C47.0052 21.0916 49.3246 23.1108 49.785 25.7627C49.8819 26.323 50.3731 26.7317 50.9436 26.7317C51.6727 26.7317 52.2168 26.0725 52.0935 25.3563C51.4393 21.6058 48.1616 18.7539 44.2143 18.7539C40.267 18.7539 36.9894 21.6058 36.3352 25.3563C36.2096 26.0725 36.7559 26.7317 37.485 26.7317H37.4806Z" fill="#ABC7EE"/>
<path d="M67.7416 26.7317C68.3121 26.7317 68.8011 26.323 68.9002 25.7627C69.3606 23.1086 71.68 21.0916 74.4731 21.0916C77.2662 21.0916 79.5856 23.1108 80.046 25.7627C80.1429 26.323 80.6341 26.7317 81.2046 26.7317C81.9337 26.7317 82.4778 26.0725 82.3545 25.3563C81.7002 21.6058 78.4226 18.7539 74.4753 18.7539C70.528 18.7539 67.2504 21.6058 66.5961 25.3563C66.4706 26.0725 67.0169 26.7317 67.746 26.7317H67.7416Z" fill="#ABC7EE"/>
<path d="M64.3232 31.1545C63.898 31.1545 63.5324 31.4577 63.4597 31.8774C63.1161 33.857 61.3869 35.362 59.3054 35.362C57.2238 35.362 55.4924 33.857 55.151 31.8774C55.0783 31.4599 54.7127 31.1545 54.2875 31.1545C53.7435 31.1545 53.3382 31.6467 53.4307 32.1806C53.9175 34.9775 56.3625 37.1043 59.3076 37.1043C62.2526 37.1043 64.6954 34.9775 65.1844 32.1806C65.2769 31.6467 64.8716 31.1545 64.3276 31.1545H64.3232Z" fill="#ABC7EE"/>
</g>
</svg>
