<?xml version="1.0"?><svg xmlns="http://www.w3.org/2000/svg" width="186" height="186"><rect x="0" y="0" width="100%" height="100%" fill="rgb(9, 132, 227)" /><g fill="#ddd" style="opacity:0.124;" transform="translate(-31.119, -31.119) rotate(45, 31.119, 31.119)" ><rect x="22" y="0" width="22" height="66" /><rect x="0" y="22" width="66" height="22" /></g><g fill="#ddd" style="opacity:0.124;" transform="translate(155.595, -31.119) rotate(45, 31.119, 31.119)" ><rect x="22" y="0" width="22" height="66" /><rect x="0" y="22" width="66" height="22" /></g><g fill="#ddd" style="opacity:0.124;" transform="translate(-31.119, 155.595) rotate(45, 31.119, 31.119)" ><rect x="22" y="0" width="22" height="66" /><rect x="0" y="22" width="66" height="22" /></g><g fill="#ddd" style="opacity:0.124;" transform="translate(155.595, 155.595) rotate(45, 31.119, 31.119)" ><rect x="22" y="0" width="22" height="66" /><rect x="0" y="22" width="66" height="22" /></g><g fill="#ddd" style="opacity:0.037333333333333;" transform="translate(0, -15.5595) rotate(45, 31.119, 31.119)" ><rect x="22" y="0" width="22" height="66" /><rect x="0" y="22" width="66" height="22" /></g><g fill="#ddd" style="opacity:0.037333333333333;" transform="translate(0, 171.1545) rotate(45, 31.119, 31.119)" ><rect x="22" y="0" width="22" height="66" /><rect x="0" y="22" width="66" height="22" /></g><g fill="#222" style="opacity:0.13266666666667;" transform="translate(31.119, -31.119) rotate(45, 31.119, 31.119)" ><rect x="22" y="0" width="22" height="66" /><rect x="0" y="22" width="66" height="22" /></g><g fill="#222" style="opacity:0.13266666666667;" transform="translate(31.119, 155.595) rotate(45, 31.119, 31.119)" ><rect x="22" y="0" width="22" height="66" /><rect x="0" y="22" width="66" height="22" /></g><g fill="#222" style="opacity:0.13266666666667;" transform="translate(62.238, -15.5595) rotate(45, 31.119, 31.119)" ><rect x="22" y="0" width="22" height="66" /><rect x="0" y="22" width="66" height="22" /></g><g fill="#222" style="opacity:0.13266666666667;" transform="translate(62.238, 171.1545) rotate(45, 31.119, 31.119)" ><rect x="22" y="0" width="22" height="66" /><rect x="0" y="22" width="66" height="22" /></g><g fill="#ddd" style="opacity:0.054666666666667;" transform="translate(93.357, -31.119) rotate(45, 31.119, 31.119)" ><rect x="22" y="0" width="22" height="66" /><rect x="0" y="22" width="66" height="22" /></g><g fill="#ddd" style="opacity:0.054666666666667;" transform="translate(93.357, 155.595) rotate(45, 31.119, 31.119)" ><rect x="22" y="0" width="22" height="66" /><rect x="0" y="22" width="66" height="22" /></g><g fill="#222" style="opacity:0.028666666666667;" transform="translate(124.476, -15.5595) rotate(45, 31.119, 31.119)" ><rect x="22" y="0" width="22" height="66" /><rect x="0" y="22" width="66" height="22" /></g><g fill="#222" style="opacity:0.028666666666667;" transform="translate(124.476, 171.1545) rotate(45, 31.119, 31.119)" ><rect x="22" y="0" width="22" height="66" /><rect x="0" y="22" width="66" height="22" /></g><g fill="#222" style="opacity:0.063333333333333;" transform="translate(-31.119, 0) rotate(45, 31.119, 31.119)" ><rect x="22" y="0" width="22" height="66" /><rect x="0" y="22" width="66" height="22" /></g><g fill="#222" style="opacity:0.063333333333333;" transform="translate(155.595, 0) rotate(45, 31.119, 31.119)" ><rect x="22" y="0" width="22" height="66" /><rect x="0" y="22" width="66" height="22" /></g><g fill="#ddd" style="opacity:0.054666666666667;" transform="translate(0, 15.5595) rotate(45, 31.119, 31.119)" ><rect x="22" y="0" width="22" height="66" /><rect x="0" y="22" width="66" height="22" /></g><g fill="#222" style="opacity:0.046;" transform="translate(31.119, 0) rotate(45, 31.119, 31.119)" ><rect x="22" y="0" width="22" height="66" /><rect x="0" y="22" width="66" height="22" /></g><g fill="#ddd" style="opacity:0.037333333333333;" transform="translate(62.238, 15.5595) rotate(45, 31.119, 31.119)" ><rect x="22" y="0" width="22" height="66" /><rect x="0" y="22" width="66" height="22" /></g><g fill="#ddd" style="opacity:0.10666666666667;" transform="translate(93.357, 0) rotate(45, 31.119, 31.119)" ><rect x="22" y="0" width="22" height="66" /><rect x="0" y="22" width="66" height="22" /></g><g fill="#ddd" style="opacity:0.054666666666667;" transform="translate(124.476, 15.5595) rotate(45, 31.119, 31.119)" ><rect x="22" y="0" width="22" height="66" /><rect x="0" y="22" width="66" height="22" /></g><g fill="#ddd" style="opacity:0.124;" transform="translate(-31.119, 31.119) rotate(45, 31.119, 31.119)" ><rect x="22" y="0" width="22" height="66" /><rect x="0" y="22" width="66" height="22" /></g><g fill="#ddd" style="opacity:0.124;" transform="translate(155.595, 31.119) rotate(45, 31.119, 31.119)" ><rect x="22" y="0" width="22" height="66" /><rect x="0" y="22" width="66" height="22" /></g><g fill="#222" style="opacity:0.028666666666667;" transform="translate(0, 46.6785) rotate(45, 31.119, 31.119)" ><rect x="22" y="0" width="22" height="66" /><rect x="0" y="22" width="66" height="22" /></g><g fill="#ddd" style="opacity:0.037333333333333;" transform="translate(31.119, 31.119) rotate(45, 31.119, 31.119)" ><rect x="22" y="0" width="22" height="66" /><rect x="0" y="22" width="66" height="22" /></g><g fill="#ddd" style="opacity:0.089333333333333;" transform="translate(62.238, 46.6785) rotate(45, 31.119, 31.119)" ><rect x="22" y="0" width="22" height="66" /><rect x="0" y="22" width="66" height="22" /></g><g fill="#222" style="opacity:0.028666666666667;" transform="translate(93.357, 31.119) rotate(45, 31.119, 31.119)" ><rect x="22" y="0" width="22" height="66" /><rect x="0" y="22" width="66" height="22" /></g><g fill="#ddd" style="opacity:0.02;" transform="translate(124.476, 46.6785) rotate(45, 31.119, 31.119)" ><rect x="22" y="0" width="22" height="66" /><rect x="0" y="22" width="66" height="22" /></g><g fill="#ddd" style="opacity:0.037333333333333;" transform="translate(-31.119, 62.238) rotate(45, 31.119, 31.119)" ><rect x="22" y="0" width="22" height="66" /><rect x="0" y="22" width="66" height="22" /></g><g fill="#ddd" style="opacity:0.037333333333333;" transform="translate(155.595, 62.238) rotate(45, 31.119, 31.119)" ><rect x="22" y="0" width="22" height="66" /><rect x="0" y="22" width="66" height="22" /></g><g fill="#222" style="opacity:0.11533333333333;" transform="translate(0, 77.7975) rotate(45, 31.119, 31.119)" ><rect x="22" y="0" width="22" height="66" /><rect x="0" y="22" width="66" height="22" /></g><g fill="#222" style="opacity:0.046;" transform="translate(31.119, 62.238) rotate(45, 31.119, 31.119)" ><rect x="22" y="0" width="22" height="66" /><rect x="0" y="22" width="66" height="22" /></g><g fill="#ddd" style="opacity:0.054666666666667;" transform="translate(62.238, 77.7975) rotate(45, 31.119, 31.119)" ><rect x="22" y="0" width="22" height="66" /><rect x="0" y="22" width="66" height="22" /></g><g fill="#222" style="opacity:0.028666666666667;" transform="translate(93.357, 62.238) rotate(45, 31.119, 31.119)" ><rect x="22" y="0" width="22" height="66" /><rect x="0" y="22" width="66" height="22" /></g><g fill="#ddd" style="opacity:0.037333333333333;" transform="translate(124.476, 77.7975) rotate(45, 31.119, 31.119)" ><rect x="22" y="0" width="22" height="66" /><rect x="0" y="22" width="66" height="22" /></g><g fill="#222" style="opacity:0.063333333333333;" transform="translate(-31.119, 93.357) rotate(45, 31.119, 31.119)" ><rect x="22" y="0" width="22" height="66" /><rect x="0" y="22" width="66" height="22" /></g><g fill="#222" style="opacity:0.063333333333333;" transform="translate(155.595, 93.357) rotate(45, 31.119, 31.119)" ><rect x="22" y="0" width="22" height="66" /><rect x="0" y="22" width="66" height="22" /></g><g fill="#ddd" style="opacity:0.054666666666667;" transform="translate(0, 108.9165) rotate(45, 31.119, 31.119)" ><rect x="22" y="0" width="22" height="66" /><rect x="0" y="22" width="66" height="22" /></g><g fill="#ddd" style="opacity:0.02;" transform="translate(31.119, 93.357) rotate(45, 31.119, 31.119)" ><rect x="22" y="0" width="22" height="66" /><rect x="0" y="22" width="66" height="22" /></g><g fill="#ddd" style="opacity:0.089333333333333;" transform="translate(62.238, 108.9165) rotate(45, 31.119, 31.119)" ><rect x="22" y="0" width="22" height="66" /><rect x="0" y="22" width="66" height="22" /></g><g fill="#222" style="opacity:0.11533333333333;" transform="translate(93.357, 93.357) rotate(45, 31.119, 31.119)" ><rect x="22" y="0" width="22" height="66" /><rect x="0" y="22" width="66" height="22" /></g><g fill="#ddd" style="opacity:0.054666666666667;" transform="translate(124.476, 108.9165) rotate(45, 31.119, 31.119)" ><rect x="22" y="0" width="22" height="66" /><rect x="0" y="22" width="66" height="22" /></g><g fill="#ddd" style="opacity:0.14133333333333;" transform="translate(-31.119, 124.476) rotate(45, 31.119, 31.119)" ><rect x="22" y="0" width="22" height="66" /><rect x="0" y="22" width="66" height="22" /></g><g fill="#ddd" style="opacity:0.14133333333333;" transform="translate(155.595, 124.476) rotate(45, 31.119, 31.119)" ><rect x="22" y="0" width="22" height="66" /><rect x="0" y="22" width="66" height="22" /></g><g fill="#ddd" style="opacity:0.14133333333333;" transform="translate(-31.119, -62.238) rotate(45, 31.119, 31.119)" ><rect x="22" y="0" width="22" height="66" /><rect x="0" y="22" width="66" height="22" /></g><g fill="#ddd" style="opacity:0.02;" transform="translate(0, 140.0355) rotate(45, 31.119, 31.119)" ><rect x="22" y="0" width="22" height="66" /><rect x="0" y="22" width="66" height="22" /></g><g fill="#ddd" style="opacity:0.02;" transform="translate(0, -46.6785) rotate(45, 31.119, 31.119)" ><rect x="22" y="0" width="22" height="66" /><rect x="0" y="22" width="66" height="22" /></g><g fill="#ddd" style="opacity:0.072;" transform="translate(31.119, 124.476) rotate(45, 31.119, 31.119)" ><rect x="22" y="0" width="22" height="66" /><rect x="0" y="22" width="66" height="22" /></g><g fill="#ddd" style="opacity:0.072;" transform="translate(31.119, -62.238) rotate(45, 31.119, 31.119)" ><rect x="22" y="0" width="22" height="66" /><rect x="0" y="22" width="66" height="22" /></g><g fill="#222" style="opacity:0.15;" transform="translate(62.238, 140.0355) rotate(45, 31.119, 31.119)" ><rect x="22" y="0" width="22" height="66" /><rect x="0" y="22" width="66" height="22" /></g><g fill="#222" style="opacity:0.15;" transform="translate(62.238, -46.6785) rotate(45, 31.119, 31.119)" ><rect x="22" y="0" width="22" height="66" /><rect x="0" y="22" width="66" height="22" /></g><g fill="#ddd" style="opacity:0.10666666666667;" transform="translate(93.357, 124.476) rotate(45, 31.119, 31.119)" ><rect x="22" y="0" width="22" height="66" /><rect x="0" y="22" width="66" height="22" /></g><g fill="#ddd" style="opacity:0.10666666666667;" transform="translate(93.357, -62.238) rotate(45, 31.119, 31.119)" ><rect x="22" y="0" width="22" height="66" /><rect x="0" y="22" width="66" height="22" /></g><g fill="#ddd" style="opacity:0.037333333333333;" transform="translate(124.476, 140.0355) rotate(45, 31.119, 31.119)" ><rect x="22" y="0" width="22" height="66" /><rect x="0" y="22" width="66" height="22" /></g><g fill="#ddd" style="opacity:0.037333333333333;" transform="translate(124.476, -46.6785) rotate(45, 31.119, 31.119)" ><rect x="22" y="0" width="22" height="66" /><rect x="0" y="22" width="66" height="22" /></g></svg>