<?xml version="1.0"?><svg xmlns="http://www.w3.org/2000/svg" width="290" height="335"><rect x="0" y="0" width="100%" height="100%" fill="rgb(253, 121, 168)" /><polyline points="0,27.943753028778,16.133333333333,0,48.4,0,64.533333333333,27.943753028778,48.4,55.887506057556,16.133333333333,55.887506057556,0,27.943753028778" stroke="#000" stroke-opacity="0.02" fill-opacity="0.080666666666667" fill="#222" transform="translate(-32.266666666667, -27.943753028778)" /><polyline points="0,27.943753028778,16.133333333333,0,48.4,0,64.533333333333,27.943753028778,48.4,55.887506057556,16.133333333333,55.887506057556,0,27.943753028778" stroke="#000" stroke-opacity="0.02" fill-opacity="0.080666666666667" fill="#222" transform="translate(258.13333333333, -27.943753028778)" /><polyline points="0,27.943753028778,16.133333333333,0,48.4,0,64.533333333333,27.943753028778,48.4,55.887506057556,16.133333333333,55.887506057556,0,27.943753028778" stroke="#000" stroke-opacity="0.02" fill-opacity="0.080666666666667" fill="#222" transform="translate(-32.266666666667, 307.38128331656)" /><polyline points="0,27.943753028778,16.133333333333,0,48.4,0,64.533333333333,27.943753028778,48.4,55.887506057556,16.133333333333,55.887506057556,0,27.943753028778" stroke="#000" stroke-opacity="0.02" fill-opacity="0.080666666666667" fill="#222" transform="translate(258.13333333333, 307.38128331656)" /><polyline points="0,27.943753028778,16.133333333333,0,48.4,0,64.533333333333,27.943753028778,48.4,55.887506057556,16.133333333333,55.887506057556,0,27.943753028778" stroke="#000" stroke-opacity="0.02" fill-opacity="0.072" fill="#ddd" transform="translate(16.133333333333, 0)" /><polyline points="0,27.943753028778,16.133333333333,0,48.4,0,64.533333333333,27.943753028778,48.4,55.887506057556,16.133333333333,55.887506057556,0,27.943753028778" stroke="#000" stroke-opacity="0.02" fill-opacity="0.072" fill="#ddd" transform="translate(16.133333333333, 335.32503634533)" /><polyline points="0,27.943753028778,16.133333333333,0,48.4,0,64.533333333333,27.943753028778,48.4,55.887506057556,16.133333333333,55.887506057556,0,27.943753028778" stroke="#000" stroke-opacity="0.02" fill-opacity="0.037333333333333" fill="#ddd" transform="translate(64.533333333333, -27.943753028778)" /><polyline points="0,27.943753028778,16.133333333333,0,48.4,0,64.533333333333,27.943753028778,48.4,55.887506057556,16.133333333333,55.887506057556,0,27.943753028778" stroke="#000" stroke-opacity="0.02" fill-opacity="0.037333333333333" fill="#ddd" transform="translate(64.533333333333, 307.38128331656)" /><polyline points="0,27.943753028778,16.133333333333,0,48.4,0,64.533333333333,27.943753028778,48.4,55.887506057556,16.133333333333,55.887506057556,0,27.943753028778" stroke="#000" stroke-opacity="0.02" fill-opacity="0.037333333333333" fill="#ddd" transform="translate(112.93333333333, 0)" /><polyline points="0,27.943753028778,16.133333333333,0,48.4,0,64.533333333333,27.943753028778,48.4,55.887506057556,16.133333333333,55.887506057556,0,27.943753028778" stroke="#000" stroke-opacity="0.02" fill-opacity="0.037333333333333" fill="#ddd" transform="translate(112.93333333333, 335.32503634533)" /><polyline points="0,27.943753028778,16.133333333333,0,48.4,0,64.533333333333,27.943753028778,48.4,55.887506057556,16.133333333333,55.887506057556,0,27.943753028778" stroke="#000" stroke-opacity="0.02" fill-opacity="0.054666666666667" fill="#ddd" transform="translate(161.33333333333, -27.943753028778)" /><polyline points="0,27.943753028778,16.133333333333,0,48.4,0,64.533333333333,27.943753028778,48.4,55.887506057556,16.133333333333,55.887506057556,0,27.943753028778" stroke="#000" stroke-opacity="0.02" fill-opacity="0.054666666666667" fill="#ddd" transform="translate(161.33333333333, 307.38128331656)" /><polyline points="0,27.943753028778,16.133333333333,0,48.4,0,64.533333333333,27.943753028778,48.4,55.887506057556,16.133333333333,55.887506057556,0,27.943753028778" stroke="#000" stroke-opacity="0.02" fill-opacity="0.037333333333333" fill="#ddd" transform="translate(209.73333333333, 0)" /><polyline points="0,27.943753028778,16.133333333333,0,48.4,0,64.533333333333,27.943753028778,48.4,55.887506057556,16.133333333333,55.887506057556,0,27.943753028778" stroke="#000" stroke-opacity="0.02" fill-opacity="0.037333333333333" fill="#ddd" transform="translate(209.73333333333, 335.32503634533)" /><polyline points="0,27.943753028778,16.133333333333,0,48.4,0,64.533333333333,27.943753028778,48.4,55.887506057556,16.133333333333,55.887506057556,0,27.943753028778" stroke="#000" stroke-opacity="0.02" fill-opacity="0.02" fill="#ddd" transform="translate(-32.266666666667, 27.943753028778)" /><polyline points="0,27.943753028778,16.133333333333,0,48.4,0,64.533333333333,27.943753028778,48.4,55.887506057556,16.133333333333,55.887506057556,0,27.943753028778" stroke="#000" stroke-opacity="0.02" fill-opacity="0.02" fill="#ddd" transform="translate(258.13333333333, 27.943753028778)" /><polyline points="0,27.943753028778,16.133333333333,0,48.4,0,64.533333333333,27.943753028778,48.4,55.887506057556,16.133333333333,55.887506057556,0,27.943753028778" stroke="#000" stroke-opacity="0.02" fill-opacity="0.098" fill="#222" transform="translate(16.133333333333, 55.887506057556)" /><polyline points="0,27.943753028778,16.133333333333,0,48.4,0,64.533333333333,27.943753028778,48.4,55.887506057556,16.133333333333,55.887506057556,0,27.943753028778" stroke="#000" stroke-opacity="0.02" fill-opacity="0.13266666666667" fill="#222" transform="translate(64.533333333333, 27.943753028778)" /><polyline points="0,27.943753028778,16.133333333333,0,48.4,0,64.533333333333,27.943753028778,48.4,55.887506057556,16.133333333333,55.887506057556,0,27.943753028778" stroke="#000" stroke-opacity="0.02" fill-opacity="0.14133333333333" fill="#ddd" transform="translate(112.93333333333, 55.887506057556)" /><polyline points="0,27.943753028778,16.133333333333,0,48.4,0,64.533333333333,27.943753028778,48.4,55.887506057556,16.133333333333,55.887506057556,0,27.943753028778" stroke="#000" stroke-opacity="0.02" fill-opacity="0.072" fill="#ddd" transform="translate(161.33333333333, 27.943753028778)" /><polyline points="0,27.943753028778,16.133333333333,0,48.4,0,64.533333333333,27.943753028778,48.4,55.887506057556,16.133333333333,55.887506057556,0,27.943753028778" stroke="#000" stroke-opacity="0.02" fill-opacity="0.037333333333333" fill="#ddd" transform="translate(209.73333333333, 55.887506057556)" /><polyline points="0,27.943753028778,16.133333333333,0,48.4,0,64.533333333333,27.943753028778,48.4,55.887506057556,16.133333333333,55.887506057556,0,27.943753028778" stroke="#000" stroke-opacity="0.02" fill-opacity="0.028666666666667" fill="#222" transform="translate(-32.266666666667, 83.831259086334)" /><polyline points="0,27.943753028778,16.133333333333,0,48.4,0,64.533333333333,27.943753028778,48.4,55.887506057556,16.133333333333,55.887506057556,0,27.943753028778" stroke="#000" stroke-opacity="0.02" fill-opacity="0.028666666666667" fill="#222" transform="translate(258.13333333333, 83.831259086334)" /><polyline points="0,27.943753028778,16.133333333333,0,48.4,0,64.533333333333,27.943753028778,48.4,55.887506057556,16.133333333333,55.887506057556,0,27.943753028778" stroke="#000" stroke-opacity="0.02" fill-opacity="0.089333333333333" fill="#ddd" transform="translate(16.133333333333, 111.77501211511)" /><polyline points="0,27.943753028778,16.133333333333,0,48.4,0,64.533333333333,27.943753028778,48.4,55.887506057556,16.133333333333,55.887506057556,0,27.943753028778" stroke="#000" stroke-opacity="0.02" fill-opacity="0.11533333333333" fill="#222" transform="translate(64.533333333333, 83.831259086334)" /><polyline points="0,27.943753028778,16.133333333333,0,48.4,0,64.533333333333,27.943753028778,48.4,55.887506057556,16.133333333333,55.887506057556,0,27.943753028778" stroke="#000" stroke-opacity="0.02" fill-opacity="0.028666666666667" fill="#222" transform="translate(112.93333333333, 111.77501211511)" /><polyline points="0,27.943753028778,16.133333333333,0,48.4,0,64.533333333333,27.943753028778,48.4,55.887506057556,16.133333333333,55.887506057556,0,27.943753028778" stroke="#000" stroke-opacity="0.02" fill-opacity="0.14133333333333" fill="#ddd" transform="translate(161.33333333333, 83.831259086334)" /><polyline points="0,27.943753028778,16.133333333333,0,48.4,0,64.533333333333,27.943753028778,48.4,55.887506057556,16.133333333333,55.887506057556,0,27.943753028778" stroke="#000" stroke-opacity="0.02" fill-opacity="0.02" fill="#ddd" transform="translate(209.73333333333, 111.77501211511)" /><polyline points="0,27.943753028778,16.133333333333,0,48.4,0,64.533333333333,27.943753028778,48.4,55.887506057556,16.133333333333,55.887506057556,0,27.943753028778" stroke="#000" stroke-opacity="0.02" fill-opacity="0.037333333333333" fill="#ddd" transform="translate(-32.266666666667, 139.71876514389)" /><polyline points="0,27.943753028778,16.133333333333,0,48.4,0,64.533333333333,27.943753028778,48.4,55.887506057556,16.133333333333,55.887506057556,0,27.943753028778" stroke="#000" stroke-opacity="0.02" fill-opacity="0.037333333333333" fill="#ddd" transform="translate(258.13333333333, 139.71876514389)" /><polyline points="0,27.943753028778,16.133333333333,0,48.4,0,64.533333333333,27.943753028778,48.4,55.887506057556,16.133333333333,55.887506057556,0,27.943753028778" stroke="#000" stroke-opacity="0.02" fill-opacity="0.15" fill="#222" transform="translate(16.133333333333, 167.66251817267)" /><polyline points="0,27.943753028778,16.133333333333,0,48.4,0,64.533333333333,27.943753028778,48.4,55.887506057556,16.133333333333,55.887506057556,0,27.943753028778" stroke="#000" stroke-opacity="0.02" fill-opacity="0.063333333333333" fill="#222" transform="translate(64.533333333333, 139.71876514389)" /><polyline points="0,27.943753028778,16.133333333333,0,48.4,0,64.533333333333,27.943753028778,48.4,55.887506057556,16.133333333333,55.887506057556,0,27.943753028778" stroke="#000" stroke-opacity="0.02" fill-opacity="0.124" fill="#ddd" transform="translate(112.93333333333, 167.66251817267)" /><polyline points="0,27.943753028778,16.133333333333,0,48.4,0,64.533333333333,27.943753028778,48.4,55.887506057556,16.133333333333,55.887506057556,0,27.943753028778" stroke="#000" stroke-opacity="0.02" fill-opacity="0.028666666666667" fill="#222" transform="translate(161.33333333333, 139.71876514389)" /><polyline points="0,27.943753028778,16.133333333333,0,48.4,0,64.533333333333,27.943753028778,48.4,55.887506057556,16.133333333333,55.887506057556,0,27.943753028778" stroke="#000" stroke-opacity="0.02" fill-opacity="0.072" fill="#ddd" transform="translate(209.73333333333, 167.66251817267)" /><polyline points="0,27.943753028778,16.133333333333,0,48.4,0,64.533333333333,27.943753028778,48.4,55.887506057556,16.133333333333,55.887506057556,0,27.943753028778" stroke="#000" stroke-opacity="0.02" fill-opacity="0.072" fill="#ddd" transform="translate(-32.266666666667, 195.60627120145)" /><polyline points="0,27.943753028778,16.133333333333,0,48.4,0,64.533333333333,27.943753028778,48.4,55.887506057556,16.133333333333,55.887506057556,0,27.943753028778" stroke="#000" stroke-opacity="0.02" fill-opacity="0.072" fill="#ddd" transform="translate(258.13333333333, 195.60627120145)" /><polyline points="0,27.943753028778,16.133333333333,0,48.4,0,64.533333333333,27.943753028778,48.4,55.887506057556,16.133333333333,55.887506057556,0,27.943753028778" stroke="#000" stroke-opacity="0.02" fill-opacity="0.15" fill="#222" transform="translate(16.133333333333, 223.55002423022)" /><polyline points="0,27.943753028778,16.133333333333,0,48.4,0,64.533333333333,27.943753028778,48.4,55.887506057556,16.133333333333,55.887506057556,0,27.943753028778" stroke="#000" stroke-opacity="0.02" fill-opacity="0.054666666666667" fill="#ddd" transform="translate(64.533333333333, 195.60627120145)" /><polyline points="0,27.943753028778,16.133333333333,0,48.4,0,64.533333333333,27.943753028778,48.4,55.887506057556,16.133333333333,55.887506057556,0,27.943753028778" stroke="#000" stroke-opacity="0.02" fill-opacity="0.14133333333333" fill="#ddd" transform="translate(112.93333333333, 223.55002423022)" /><polyline points="0,27.943753028778,16.133333333333,0,48.4,0,64.533333333333,27.943753028778,48.4,55.887506057556,16.133333333333,55.887506057556,0,27.943753028778" stroke="#000" stroke-opacity="0.02" fill-opacity="0.11533333333333" fill="#222" transform="translate(161.33333333333, 195.60627120145)" /><polyline points="0,27.943753028778,16.133333333333,0,48.4,0,64.533333333333,27.943753028778,48.4,55.887506057556,16.133333333333,55.887506057556,0,27.943753028778" stroke="#000" stroke-opacity="0.02" fill-opacity="0.02" fill="#ddd" transform="translate(209.73333333333, 223.55002423022)" /><polyline points="0,27.943753028778,16.133333333333,0,48.4,0,64.533333333333,27.943753028778,48.4,55.887506057556,16.133333333333,55.887506057556,0,27.943753028778" stroke="#000" stroke-opacity="0.02" fill-opacity="0.046" fill="#222" transform="translate(-32.266666666667, 251.493777259)" /><polyline points="0,27.943753028778,16.133333333333,0,48.4,0,64.533333333333,27.943753028778,48.4,55.887506057556,16.133333333333,55.887506057556,0,27.943753028778" stroke="#000" stroke-opacity="0.02" fill-opacity="0.046" fill="#222" transform="translate(258.13333333333, 251.493777259)" /><polyline points="0,27.943753028778,16.133333333333,0,48.4,0,64.533333333333,27.943753028778,48.4,55.887506057556,16.133333333333,55.887506057556,0,27.943753028778" stroke="#000" stroke-opacity="0.02" fill-opacity="0.037333333333333" fill="#ddd" transform="translate(16.133333333333, 279.43753028778)" /><polyline points="0,27.943753028778,16.133333333333,0,48.4,0,64.533333333333,27.943753028778,48.4,55.887506057556,16.133333333333,55.887506057556,0,27.943753028778" stroke="#000" stroke-opacity="0.02" fill-opacity="0.124" fill="#ddd" transform="translate(64.533333333333, 251.493777259)" /><polyline points="0,27.943753028778,16.133333333333,0,48.4,0,64.533333333333,27.943753028778,48.4,55.887506057556,16.133333333333,55.887506057556,0,27.943753028778" stroke="#000" stroke-opacity="0.02" fill-opacity="0.15" fill="#222" transform="translate(112.93333333333, 279.43753028778)" /><polyline points="0,27.943753028778,16.133333333333,0,48.4,0,64.533333333333,27.943753028778,48.4,55.887506057556,16.133333333333,55.887506057556,0,27.943753028778" stroke="#000" stroke-opacity="0.02" fill-opacity="0.10666666666667" fill="#ddd" transform="translate(161.33333333333, 251.493777259)" /><polyline points="0,27.943753028778,16.133333333333,0,48.4,0,64.533333333333,27.943753028778,48.4,55.887506057556,16.133333333333,55.887506057556,0,27.943753028778" stroke="#000" stroke-opacity="0.02" fill-opacity="0.072" fill="#ddd" transform="translate(209.73333333333, 279.43753028778)" /></svg>