<?xml version="1.0"?><svg xmlns="http://www.w3.org/2000/svg" width="162" height="280"><rect x="0" y="0" width="100%" height="100%" fill="rgb(223, 230, 233)" /><polyline points="27, 0, 54, 46.76537180436, 0, 46.76537180436, 27, 0" fill="#222" fill-opacity="0.098" stroke="#000" stroke-opacity="0.02" transform="translate(-27, 0) rotate(180, 27, 23.38268590218)" /><polyline points="27, 0, 54, 46.76537180436, 0, 46.76537180436, 27, 0" fill="#222" fill-opacity="0.098" stroke="#000" stroke-opacity="0.02" transform="translate(135, 0) rotate(180, 27, 23.38268590218)" /><polyline points="27, 0, 54, 46.76537180436, 0, 46.76537180436, 27, 0" fill="#222" fill-opacity="0.080666666666667" stroke="#000" stroke-opacity="0.02" transform="translate(0, 0) rotate(0, 27, 23.38268590218)" /><polyline points="27, 0, 54, 46.76537180436, 0, 46.76537180436, 27, 0" fill="#222" fill-opacity="0.15" stroke="#000" stroke-opacity="0.02" transform="translate(27, 0) rotate(180, 27, 23.38268590218)" /><polyline points="27, 0, 54, 46.76537180436, 0, 46.76537180436, 27, 0" fill="#222" fill-opacity="0.098" stroke="#000" stroke-opacity="0.02" transform="translate(54, 0) rotate(0, 27, 23.38268590218)" /><polyline points="27, 0, 54, 46.76537180436, 0, 46.76537180436, 27, 0" fill="#222" fill-opacity="0.13266666666667" stroke="#000" stroke-opacity="0.02" transform="translate(81, 0) rotate(180, 27, 23.38268590218)" /><polyline points="27, 0, 54, 46.76537180436, 0, 46.76537180436, 27, 0" fill="#ddd" fill-opacity="0.02" stroke="#000" stroke-opacity="0.02" transform="translate(108, 0) rotate(0, 27, 23.38268590218)" /><polyline points="27, 0, 54, 46.76537180436, 0, 46.76537180436, 27, 0" fill="#ddd" fill-opacity="0.10666666666667" stroke="#000" stroke-opacity="0.02" transform="translate(-27, 46.76537180436) rotate(0, 27, 23.38268590218)" /><polyline points="27, 0, 54, 46.76537180436, 0, 46.76537180436, 27, 0" fill="#ddd" fill-opacity="0.10666666666667" stroke="#000" stroke-opacity="0.02" transform="translate(135, 46.76537180436) rotate(0, 27, 23.38268590218)" /><polyline points="27, 0, 54, 46.76537180436, 0, 46.76537180436, 27, 0" fill="#222" fill-opacity="0.063333333333333" stroke="#000" stroke-opacity="0.02" transform="translate(0, 46.76537180436) rotate(180, 27, 23.38268590218)" /><polyline points="27, 0, 54, 46.76537180436, 0, 46.76537180436, 27, 0" fill="#ddd" fill-opacity="0.089333333333333" stroke="#000" stroke-opacity="0.02" transform="translate(27, 46.76537180436) rotate(0, 27, 23.38268590218)" /><polyline points="27, 0, 54, 46.76537180436, 0, 46.76537180436, 27, 0" fill="#222" fill-opacity="0.063333333333333" stroke="#000" stroke-opacity="0.02" transform="translate(54, 46.76537180436) rotate(180, 27, 23.38268590218)" /><polyline points="27, 0, 54, 46.76537180436, 0, 46.76537180436, 27, 0" fill="#ddd" fill-opacity="0.124" stroke="#000" stroke-opacity="0.02" transform="translate(81, 46.76537180436) rotate(0, 27, 23.38268590218)" /><polyline points="27, 0, 54, 46.76537180436, 0, 46.76537180436, 27, 0" fill="#ddd" fill-opacity="0.054666666666667" stroke="#000" stroke-opacity="0.02" transform="translate(108, 46.76537180436) rotate(180, 27, 23.38268590218)" /><polyline points="27, 0, 54, 46.76537180436, 0, 46.76537180436, 27, 0" fill="#ddd" fill-opacity="0.124" stroke="#000" stroke-opacity="0.02" transform="translate(-27, 93.530743608719) rotate(180, 27, 23.38268590218)" /><polyline points="27, 0, 54, 46.76537180436, 0, 46.76537180436, 27, 0" fill="#ddd" fill-opacity="0.124" stroke="#000" stroke-opacity="0.02" transform="translate(135, 93.530743608719) rotate(180, 27, 23.38268590218)" /><polyline points="27, 0, 54, 46.76537180436, 0, 46.76537180436, 27, 0" fill="#ddd" fill-opacity="0.037333333333333" stroke="#000" stroke-opacity="0.02" transform="translate(0, 93.530743608719) rotate(0, 27, 23.38268590218)" /><polyline points="27, 0, 54, 46.76537180436, 0, 46.76537180436, 27, 0" fill="#ddd" fill-opacity="0.072" stroke="#000" stroke-opacity="0.02" transform="translate(27, 93.530743608719) rotate(180, 27, 23.38268590218)" /><polyline points="27, 0, 54, 46.76537180436, 0, 46.76537180436, 27, 0" fill="#222" fill-opacity="0.080666666666667" stroke="#000" stroke-opacity="0.02" transform="translate(54, 93.530743608719) rotate(0, 27, 23.38268590218)" /><polyline points="27, 0, 54, 46.76537180436, 0, 46.76537180436, 27, 0" fill="#222" fill-opacity="0.11533333333333" stroke="#000" stroke-opacity="0.02" transform="translate(81, 93.530743608719) rotate(180, 27, 23.38268590218)" /><polyline points="27, 0, 54, 46.76537180436, 0, 46.76537180436, 27, 0" fill="#ddd" fill-opacity="0.124" stroke="#000" stroke-opacity="0.02" transform="translate(108, 93.530743608719) rotate(0, 27, 23.38268590218)" /><polyline points="27, 0, 54, 46.76537180436, 0, 46.76537180436, 27, 0" fill="#222" fill-opacity="0.046" stroke="#000" stroke-opacity="0.02" transform="translate(-27, 140.29611541308) rotate(0, 27, 23.38268590218)" /><polyline points="27, 0, 54, 46.76537180436, 0, 46.76537180436, 27, 0" fill="#222" fill-opacity="0.046" stroke="#000" stroke-opacity="0.02" transform="translate(135, 140.29611541308) rotate(0, 27, 23.38268590218)" /><polyline points="27, 0, 54, 46.76537180436, 0, 46.76537180436, 27, 0" fill="#222" fill-opacity="0.080666666666667" stroke="#000" stroke-opacity="0.02" transform="translate(0, 140.29611541308) rotate(180, 27, 23.38268590218)" /><polyline points="27, 0, 54, 46.76537180436, 0, 46.76537180436, 27, 0" fill="#ddd" fill-opacity="0.089333333333333" stroke="#000" stroke-opacity="0.02" transform="translate(27, 140.29611541308) rotate(0, 27, 23.38268590218)" /><polyline points="27, 0, 54, 46.76537180436, 0, 46.76537180436, 27, 0" fill="#222" fill-opacity="0.11533333333333" stroke="#000" stroke-opacity="0.02" transform="translate(54, 140.29611541308) rotate(180, 27, 23.38268590218)" /><polyline points="27, 0, 54, 46.76537180436, 0, 46.76537180436, 27, 0" fill="#ddd" fill-opacity="0.072" stroke="#000" stroke-opacity="0.02" transform="translate(81, 140.29611541308) rotate(0, 27, 23.38268590218)" /><polyline points="27, 0, 54, 46.76537180436, 0, 46.76537180436, 27, 0" fill="#ddd" fill-opacity="0.10666666666667" stroke="#000" stroke-opacity="0.02" transform="translate(108, 140.29611541308) rotate(180, 27, 23.38268590218)" /><polyline points="27, 0, 54, 46.76537180436, 0, 46.76537180436, 27, 0" fill="#ddd" fill-opacity="0.14133333333333" stroke="#000" stroke-opacity="0.02" transform="translate(-27, 187.06148721744) rotate(180, 27, 23.38268590218)" /><polyline points="27, 0, 54, 46.76537180436, 0, 46.76537180436, 27, 0" fill="#ddd" fill-opacity="0.14133333333333" stroke="#000" stroke-opacity="0.02" transform="translate(135, 187.06148721744) rotate(180, 27, 23.38268590218)" /><polyline points="27, 0, 54, 46.76537180436, 0, 46.76537180436, 27, 0" fill="#222" fill-opacity="0.046" stroke="#000" stroke-opacity="0.02" transform="translate(0, 187.06148721744) rotate(0, 27, 23.38268590218)" /><polyline points="27, 0, 54, 46.76537180436, 0, 46.76537180436, 27, 0" fill="#ddd" fill-opacity="0.054666666666667" stroke="#000" stroke-opacity="0.02" transform="translate(27, 187.06148721744) rotate(180, 27, 23.38268590218)" /><polyline points="27, 0, 54, 46.76537180436, 0, 46.76537180436, 27, 0" fill="#222" fill-opacity="0.098" stroke="#000" stroke-opacity="0.02" transform="translate(54, 187.06148721744) rotate(0, 27, 23.38268590218)" /><polyline points="27, 0, 54, 46.76537180436, 0, 46.76537180436, 27, 0" fill="#ddd" fill-opacity="0.124" stroke="#000" stroke-opacity="0.02" transform="translate(81, 187.06148721744) rotate(180, 27, 23.38268590218)" /><polyline points="27, 0, 54, 46.76537180436, 0, 46.76537180436, 27, 0" fill="#ddd" fill-opacity="0.10666666666667" stroke="#000" stroke-opacity="0.02" transform="translate(108, 187.06148721744) rotate(0, 27, 23.38268590218)" /><polyline points="27, 0, 54, 46.76537180436, 0, 46.76537180436, 27, 0" fill="#ddd" fill-opacity="0.02" stroke="#000" stroke-opacity="0.02" transform="translate(-27, 233.8268590218) rotate(0, 27, 23.38268590218)" /><polyline points="27, 0, 54, 46.76537180436, 0, 46.76537180436, 27, 0" fill="#ddd" fill-opacity="0.02" stroke="#000" stroke-opacity="0.02" transform="translate(135, 233.8268590218) rotate(0, 27, 23.38268590218)" /><polyline points="27, 0, 54, 46.76537180436, 0, 46.76537180436, 27, 0" fill="#ddd" fill-opacity="0.072" stroke="#000" stroke-opacity="0.02" transform="translate(0, 233.8268590218) rotate(180, 27, 23.38268590218)" /><polyline points="27, 0, 54, 46.76537180436, 0, 46.76537180436, 27, 0" fill="#222" fill-opacity="0.098" stroke="#000" stroke-opacity="0.02" transform="translate(27, 233.8268590218) rotate(0, 27, 23.38268590218)" /><polyline points="27, 0, 54, 46.76537180436, 0, 46.76537180436, 27, 0" fill="#222" fill-opacity="0.098" stroke="#000" stroke-opacity="0.02" transform="translate(54, 233.8268590218) rotate(180, 27, 23.38268590218)" /><polyline points="27, 0, 54, 46.76537180436, 0, 46.76537180436, 27, 0" fill="#ddd" fill-opacity="0.10666666666667" stroke="#000" stroke-opacity="0.02" transform="translate(81, 233.8268590218) rotate(0, 27, 23.38268590218)" /><polyline points="27, 0, 54, 46.76537180436, 0, 46.76537180436, 27, 0" fill="#ddd" fill-opacity="0.124" stroke="#000" stroke-opacity="0.02" transform="translate(108, 233.8268590218) rotate(180, 27, 23.38268590218)" /></svg>