<?xml version="1.0"?><svg xmlns="http://www.w3.org/2000/svg" width="469" height="469"><rect x="0" y="0" width="100%" height="100%" fill="rgb(253, 121, 168)" /><rect x="0" y="6" width="100%" height="19" opacity="0.14133333333333" fill="#ddd" /><rect x="0" y="32" width="100%" height="14" opacity="0.098" fill="#222" /><rect x="0" y="55" width="100%" height="14" opacity="0.098" fill="#222" /><rect x="0" y="88" width="100%" height="7" opacity="0.037333333333333" fill="#ddd" /><rect x="0" y="113" width="100%" height="13" opacity="0.089333333333333" fill="#ddd" /><rect x="0" y="145" width="100%" height="14" opacity="0.098" fill="#222" /><rect x="0" y="170" width="100%" height="9" opacity="0.054666666666667" fill="#ddd" /><rect x="0" y="199" width="100%" height="8" opacity="0.046" fill="#222" /><rect x="0" y="222" width="100%" height="13" opacity="0.089333333333333" fill="#ddd" /><rect x="0" y="251" width="100%" height="16" opacity="0.11533333333333" fill="#222" /><rect x="0" y="279" width="100%" height="20" opacity="0.15" fill="#222" /><rect x="0" y="308" width="100%" height="20" opacity="0.15" fill="#222" /><rect x="0" y="341" width="100%" height="7" opacity="0.037333333333333" fill="#ddd" /><rect x="0" y="357" width="100%" height="11" opacity="0.072" fill="#ddd" /><rect x="0" y="378" width="100%" height="10" opacity="0.063333333333333" fill="#222" /><rect x="0" y="400" width="100%" height="15" opacity="0.10666666666667" fill="#ddd" /><rect x="0" y="428" width="100%" height="5" opacity="0.02" fill="#ddd" /><rect x="0" y="441" width="100%" height="9" opacity="0.054666666666667" fill="#ddd" /><rect x="0" y="455" width="100%" height="14" opacity="0.098" fill="#222" /><rect x="6" y="0" width="19" height="100%" opacity="0.14133333333333" fill="#ddd" /><rect x="32" y="0" width="14" height="100%" opacity="0.098" fill="#222" /><rect x="55" y="0" width="14" height="100%" opacity="0.098" fill="#222" /><rect x="88" y="0" width="7" height="100%" opacity="0.037333333333333" fill="#ddd" /><rect x="113" y="0" width="13" height="100%" opacity="0.089333333333333" fill="#ddd" /><rect x="145" y="0" width="14" height="100%" opacity="0.098" fill="#222" /><rect x="170" y="0" width="9" height="100%" opacity="0.054666666666667" fill="#ddd" /><rect x="199" y="0" width="8" height="100%" opacity="0.046" fill="#222" /><rect x="222" y="0" width="13" height="100%" opacity="0.089333333333333" fill="#ddd" /><rect x="251" y="0" width="16" height="100%" opacity="0.11533333333333" fill="#222" /><rect x="279" y="0" width="20" height="100%" opacity="0.15" fill="#222" /><rect x="308" y="0" width="20" height="100%" opacity="0.15" fill="#222" /><rect x="341" y="0" width="7" height="100%" opacity="0.037333333333333" fill="#ddd" /><rect x="357" y="0" width="11" height="100%" opacity="0.072" fill="#ddd" /><rect x="378" y="0" width="10" height="100%" opacity="0.063333333333333" fill="#222" /><rect x="400" y="0" width="15" height="100%" opacity="0.10666666666667" fill="#ddd" /><rect x="428" y="0" width="5" height="100%" opacity="0.02" fill="#ddd" /><rect x="441" y="0" width="9" height="100%" opacity="0.054666666666667" fill="#ddd" /><rect x="455" y="0" width="14" height="100%" opacity="0.098" fill="#222" /></svg>