<?xml version="1.0" encoding="UTF-8" standalone="no"?>
<svg width="93" height="95" viewBox="0 0 93 95" fill="none" xmlns="http://www.w3.org/2000/svg">
<mask id="mask0_655_4725" style="mask-type:alpha" maskUnits="userSpaceOnUse" x="0" y="0" width="93" height="95">
<rect width="93" height="95" fill="#D9D9D9"/>
</mask>
<g mask="url(#mask0_655_4725)">
<path d="M115.37 99.7567C115.039 99.8081 115.109 99.7769 114.797 99.8701L114.67 99.7315C103.296 86.2798 94.7914 70.1609 91.7495 62.7632L85.9898 64.2327C89.2536 72.5097 98.1755 89.4187 110.103 103.532C109.417 104.844 109.128 106.38 109.373 107.956C109.683 109.952 110.788 111.627 112.315 112.709L114.13 110.151C113.27 109.541 112.648 108.598 112.474 107.474C112.131 105.265 113.643 103.199 115.85 102.856C118.056 102.513 120.125 104.025 120.468 106.232C120.639 107.336 120.347 108.405 119.735 109.241L122.269 111.093C123.354 109.609 123.873 107.711 123.569 105.752C122.96 101.832 119.288 99.148 115.368 99.757L115.37 99.7567Z" fill="#3B4F75"/>
<path d="M47.8382 110.249C48.1693 110.198 48.0929 110.19 48.4189 110.184L48.498 110.013C55.2539 93.7443 58.4667 75.8048 59.1205 67.8328L65.0546 67.4854C64.4562 76.3626 61.0855 95.1815 54.0028 112.248C55.0542 113.291 55.7958 114.666 56.0408 116.242C56.351 118.239 55.8062 120.169 54.68 121.664L52.1736 119.777C52.8083 118.935 53.1145 117.848 52.9398 116.724C52.5967 114.515 50.5284 113.005 48.3217 113.348C46.113 113.691 44.6028 115.759 44.9457 117.966C45.1173 119.071 45.7206 120 46.5567 120.611L44.7046 123.145C43.2186 122.062 42.1478 120.411 41.8431 118.45C41.2341 114.531 43.9185 110.858 47.8382 110.249Z" fill="#3B4F75"/>
<path d="M95.2468 60.1037C94.598 57.0389 91.655 54.9824 88.5223 55.4691C85.3897 55.9559 83.0581 59.0106 83.5621 62.2543C84.0661 65.4979 87.1036 67.7185 90.3473 67.2145L96.22 66.302L95.257 60.1042L95.2471 60.1057L95.2468 60.1037Z" fill="#F1F2F2"/>
<path d="M55.5578 66.2706C55.2461 63.1534 57.4263 60.3008 60.559 59.8141C63.8026 59.3101 66.8401 61.5306 67.3441 64.7743C67.8481 68.018 65.6276 71.0555 62.3839 71.5595L56.5112 72.4719L55.5482 66.2741L55.5581 66.2726L55.5578 66.2706Z" fill="#F1F2F2"/>
<path d="M93.9038 18.9199C93.0589 15.4165 90.2491 13.0936 87.402 13.536L48.2422 19.6205C45.395 20.0628 43.4226 23.1288 43.6806 26.7234C44.064 32.0529 44.9028 39.9736 46.7356 47.4313C47.5916 50.9147 50.3951 53.2102 53.2283 52.77L92.7113 46.6353C95.5446 46.1951 97.5194 43.1571 97.278 39.5782C96.7617 31.916 95.1575 24.1142 93.9057 18.9196L93.9038 18.9199Z" fill="#F1F2F2"/>
<path d="M90.1397 64.4912C88.8936 56.4713 81.3819 50.9782 73.36 52.2247C65.3381 53.4711 59.847 60.9824 61.0935 69.0043C61.2136 69.7776 61.3927 70.5254 61.6226 71.2471C66.4177 90.9475 73.4021 103.672 78.1745 110.655C80.3922 113.898 85.3687 113.125 86.4978 109.361C88.9284 101.26 91.7226 87.0158 90.312 66.7894C90.314 66.0317 90.2555 65.2631 90.1357 64.4918L90.1397 64.4912Z" fill="#ABC7EE"/>
<path d="M86.4077 84.9318C85.7401 80.6353 81.7176 77.6947 77.4211 78.3623C73.1246 79.0298 70.184 83.0524 70.8516 87.3488L73.1818 102.346C74.9699 105.686 76.6772 108.428 78.1693 110.609C80.387 113.852 85.3636 113.079 86.4926 109.316C87.2528 106.785 88.0476 103.654 88.7378 99.9288L86.4077 84.9318Z" fill="#3B4F75"/>
<path d="M82.8336 53.9449C80.5553 56.5711 79.9288 60.9813 79.9288 60.9813C79.1622 63.9412 75.2403 64.3272 75.2403 64.3272C75.2403 64.3272 71.3862 65.1494 69.7576 62.5617C69.7576 62.5617 67.8245 58.5492 64.8547 56.7384C62.148 59.6525 60.6444 63.6324 60.9598 67.8313C62.9991 70.1359 69.3956 77.979 70.8257 87.1825C70.1581 82.8861 73.1243 79.0281 77.4208 78.3605C81.7172 77.693 85.7145 80.471 86.3817 84.7655C84.9517 75.5619 88.6669 66.1478 89.9108 63.3331C88.9369 59.2344 86.2947 55.8986 82.8336 53.9449Z" fill="#F1F2F2"/>
<path d="M91.6988 20.5802C90.9649 17.6078 88.4387 15.6591 85.8553 16.0605L50.3197 21.5819C47.7363 21.9833 45.9205 24.6066 46.1231 27.6616C46.4226 32.1899 47.1142 38.9152 48.7059 45.2387C49.4489 48.1914 51.9698 50.1186 54.5413 49.719L90.3703 44.1521C92.9398 43.7528 94.7571 41.1516 94.5711 38.1123C94.171 31.6037 92.7875 24.9859 91.6988 20.5802Z" fill="#231F20"/>
<path d="M77.8601 81.1899C79.0088 81.0114 79.7318 79.5272 79.4751 77.8748C79.2184 76.2225 78.0791 75.0277 76.9304 75.2061C75.7818 75.3846 75.0587 76.8688 75.3154 78.5212C75.5722 80.1735 76.7115 81.3683 77.8601 81.1899Z" fill="#2D464D"/>
<path d="M67.53 38.8416C67.53 38.8416 71.4163 39.5982 75.2506 37.642" stroke="#ABC7EE" stroke-width="2" stroke-miterlimit="10" stroke-linecap="round"/>
<path d="M77.0806 31.7756C77.0806 31.7756 82.5799 34.0929 87.6125 30.1392" stroke="#ABC7EE" stroke-width="2" stroke-miterlimit="10" stroke-linecap="round"/>
<path d="M53.0425 35.5107C53.0425 35.5107 58.5418 37.828 63.5745 33.8743" stroke="#ABC7EE" stroke-width="2" stroke-miterlimit="10" stroke-linecap="round"/>
</g>
</svg>